# xmcd
#
# Track frame offsets:
# 150
# 16285
# 32780
# 49340
# 65118
# 83085
# 95840
# 111261
# 129066
# 142954
# 157724
#
# Disc length: 2233 seconds
#
#
# Revision: 0
# Processed by: cddbd v1.5.1PL0 Copyright (c) Steve Scherf et al.
# Submitted via: FreeRIP 2.942 
#
DISCID=8b08b70b
DTITLE=Ryan Shupe and the RubberBand - Dream Big
DYEAR=2005
DGENRE=Country
TTITLE0=Banjo Boy
TTITLE1=Even Superman
TTITLE2=Dream Big
TTITLE3=Simplify
TTITLE4=Would You Love Me
TTITLE5=Ambush
TTITLE6=New Emotion
TTITLE7=Rain Falls Down
TTITLE8=Never Give Up
TTITLE9=Oh How I Miss You
TTITLE10=Hey Hey Hey
EXTD=
EXTT0=
EXTT1=
EXTT2=
EXTT3=
EXTT4=
EXTT5=
EXTT6=
EXTT7=
EXTT8=
EXTT9=
EXTT10=
PLAYORDER=
